<?xml version="1.0" encoding="utf-8"?>
<!-- Generator: Adobe Illustrator 18.0.0, SVG Export Plug-In . SVG Version: 6.00 Build 0)  -->
<!DOCTYPE svg PUBLIC "-//W3C//DTD SVG 1.1//EN" "http://www.w3.org/Graphics/SVG/1.1/DTD/svg11.dtd">
<svg version="1.1" id="Capa_1" xmlns="http://www.w3.org/2000/svg" xmlns:xlink="http://www.w3.org/1999/xlink" x="0px" y="0px"
	 viewBox="0 0 1080 500" enable-background="new 0 0 1080 500" xml:space="preserve">
<rect id="Fondo" fill="#779ECB" width="1080" height="500"/>
<g id="Ventana">
	<path fill="#DBDBDB" d="M699.1,98.7H59.2c-6.2,0-11.2-5-11.2-11.2v-31c0-6.2,5-11.2,11.2-11.2h639.9c6.2,0,11.2,5,11.2,11.2v31
		C710.3,93.7,705.3,98.7,699.1,98.7z"/>
	<rect x="48" y="72" fill="#3B3C36" width="100.3" height="392"/>
	<rect x="148.3" y="72" fill="#4C4C49" width="562" height="392"/>
</g>
<g id="Botones">
	<circle fill="#C23B22" cx="67" cy="60" r="8"/>
	<circle fill="#EAB318" cx="90" cy="60" r="8"/>
	<circle fill="#4FC133" cx="113" cy="60" r="8"/>
</g>
<g id="Codigo">
	<rect x="157" y="118" fill="#80B770" width="328" height="21"/>
	<rect x="194.7" y="148" fill="#D86464" width="153.9" height="21"/>
	<rect x="194.7" y="179" fill="#BC84BB" width="220.7" height="21"/>
	<rect x="212.5" y="212" fill="#D2D6D0" width="111" height="21"/>
	<rect x="157" y="239" fill="#D2D6D0" width="64.5" height="21"/>
	<rect x="405.5" y="239" fill="#D2D6D0" width="64.5" height="21"/>
	<rect x="243" y="239" fill="#D86464" width="133.7" height="21"/>
	<rect x="366.6" y="148" fill="#D2D6D0" width="153.9" height="21"/>
	
		<rect x="192.4" y="392.8" transform="matrix(-1 -1.131208e-03 1.131208e-03 -1 712.4088 807.0209)" fill="#80B770" width="328" height="21"/>
	
		<rect x="328.9" y="362.9" transform="matrix(-1 -1.131208e-03 1.131208e-03 -1 811.2883 747.1886)" fill="#D86464" width="153.9" height="21"/>
	
		<rect x="262.2" y="331.8" transform="matrix(-1 -1.131208e-03 1.131208e-03 -1 744.6158 685.0754)" fill="#80B770" width="220.7" height="21"/>
	
		<rect x="354" y="303.8" transform="matrix(-1 -1.131208e-03 1.131208e-03 -1 818.6655 629.0486)" fill="#D86464" width="111" height="21"/>
	
		<rect x="456.1" y="272" transform="matrix(-1 -1.131208e-03 1.131208e-03 -1 976.3152 565.4684)" fill="#BC84BB" width="64.5" height="21"/>
	
		<rect x="207.6" y="271.7" transform="matrix(-1 -1.131208e-03 1.131208e-03 -1 479.3238 564.6251)" fill="#BC84BB" width="64.5" height="21"/>
	
		<rect x="300.8" y="271.8" transform="matrix(-1 -1.131208e-03 1.131208e-03 -1 735.0802 565.0591)" fill="#D86464" width="133.7" height="21"/>
	
		<rect x="157" y="362.7" transform="matrix(-1 -1.131208e-03 1.131208e-03 -1 467.4818 746.6052)" fill="#BC84BB" width="153.9" height="21"/>
</g>
</svg>
